<?xml version="1.0" encoding="utf-8"?>
<!-- Generator: Adobe Illustrator 20.0.0, SVG Export Plug-In . SVG Version: 6.00 Build 0)  -->
<svg version="1.1" id="Layer_1" xmlns="http://www.w3.org/2000/svg" xmlns:xlink="http://www.w3.org/1999/xlink" x="0px" y="0px"
	 viewBox="0 0 80 80" style="enable-background:new 0 0 80 80;" xml:space="preserve">
<style type="text/css">
	.st0{fill:none;stroke:#D1D3D4;stroke-width:1.5;stroke-linejoin:round;stroke-miterlimit:10;}
	.st1{fill:url(#SVGID_1_);}
	.st2{fill:url(#SVGID_2_);}
</style>
<g>
	<g>
		<polyline class="st0" points="12.3,1.1 1,1.1 1,12.5 		"/>
		<polyline class="st0" points="79,12.5 79,1.1 67.6,1.1 		"/>
		<polyline class="st0" points="1,67.7 1,79.1 12.3,79.1 		"/>
		<polyline class="st0" points="67.6,79.1 79,79.1 79,67.7 		"/>
	</g>
	<g>
		
			<linearGradient id="SVGID_1_" gradientUnits="userSpaceOnUse" x1="14.3462" y1="1472.7781" x2="64.4625" y2="1430.7256" gradientTransform="matrix(1 0 0 1 0 -1420)">
			<stop  offset="0" style="stop-color:#8076B5"/>
			<stop  offset="1" style="stop-color:#B977B0"/>
		</linearGradient>
		<path class="st1" d="M39.9,14.7c-2.6,3.3-11,3.9-11,3.9s-7.4-0.2-11.1-2.8V43c0,5.4,2.2,10.7,6.2,14.3c3.3,2.9,8.4,6,15.8,8.2
			V14.7H39.9z"/>
		
			<linearGradient id="SVGID_2_" gradientUnits="userSpaceOnUse" x1="22.712" y1="1477.1182" x2="73.3426" y2="1434.6342" gradientTransform="matrix(1 0 0 1 0 -1420)">
			<stop  offset="0" style="stop-color:#8076B5"/>
			<stop  offset="1" style="stop-color:#B977B0"/>
		</linearGradient>
		<path class="st2" d="M51,18.6c0,0-8.4-0.6-11-3.9l0,0v50.8c7.3-2.1,12.4-5.1,15.7-8.2c4-3.6,6.2-8.9,6.2-14.3V15.9
			C58.4,18.4,51,18.6,51,18.6z"/>
	</g>
</g>
</svg>
