<svg xmlns="http://www.w3.org/2000/svg" viewBox="0 0 80 69.5"><linearGradient id="a" gradientUnits="userSpaceOnUse" x1="28.479" y1="14.83" x2="28.479" y2="2.148"><stop offset="0" stop-color="#77c3e2"/><stop offset="1" stop-color="#83caa6"/></linearGradient><path fill="none" stroke="url(#a)" stroke-width="2.402" stroke-miterlimit="10" d="M28.479 2.148V14.83"/><linearGradient id="b" gradientUnits="userSpaceOnUse" x1="40.512" y1="13.018" x2="40.512" y2=".336"><stop offset="0" stop-color="#77c3e2"/><stop offset="1" stop-color="#83caa6"/></linearGradient><path fill="none" stroke="url(#b)" stroke-width="2.402" stroke-miterlimit="10" d="M40.512.336v12.682"/><linearGradient id="c" gradientUnits="userSpaceOnUse" x1="52.211" y1="14.83" x2="52.211" y2="2.148"><stop offset="0" stop-color="#77c3e2"/><stop offset="1" stop-color="#83caa6"/></linearGradient><path fill="none" stroke="url(#c)" stroke-width="2.402" stroke-miterlimit="10" d="M52.211 2.148V14.83"/><linearGradient id="d" gradientUnits="userSpaceOnUse" x1="27.921" y1="14.995" x2="106.811" y2="14.995"><stop offset="0" stop-color="#77c3e2"/><stop offset="1" stop-color="#83caa6"/></linearGradient><path fill="url(#d)" d="M23.391 12.291l5.064 5.408 5.112-5.361z"/><linearGradient id="e" gradientUnits="userSpaceOnUse" x1="27.136" y1="12.75" x2="106.026" y2="12.75"><stop offset="0" stop-color="#77c3e2"/><stop offset="1" stop-color="#83caa6"/></linearGradient><path fill="url(#e)" d="M35.424 10.046l5.064 5.408 5.112-5.361z"/><linearGradient id="f" gradientUnits="userSpaceOnUse" x1="27.884" y1="14.995" x2="106.775" y2="14.995"><stop offset="0" stop-color="#77c3e2"/><stop offset="1" stop-color="#83caa6"/></linearGradient><path fill="url(#f)" d="M47.123 12.291l5.064 5.408 5.112-5.361z"/><linearGradient id="g" gradientUnits="userSpaceOnUse" x1="28.778" y1="53.727" x2="66.778" y2="23.394"><stop offset="0" stop-color="#77c3e2"/><stop offset="1" stop-color="#83caa6"/></linearGradient><path fill="url(#g)" d="M36.335 35.989h10.719v14.857H36.335z"/><linearGradient id="h" gradientUnits="userSpaceOnUse" x1="21.913" y1="45.127" x2="59.913" y2="14.794"><stop offset="0" stop-color="#77c3e2"/><stop offset="1" stop-color="#83caa6"/></linearGradient><path d="M40.795 31.517c-9.49 0-17.602-1.394-20.958-3.368l22.126 19.61L63.06 27.188h-.092c-2.065 2.468-11.205 4.329-22.173 4.329z" fill="url(#h)"/><linearGradient id="i" gradientUnits="userSpaceOnUse" x1="18.86" y1="25.965" x2="63.35" y2="25.965"><stop offset="0" stop-color="#77c3e2"/><stop offset="1" stop-color="#83caa6"/></linearGradient><ellipse cx="41.105" cy="25.965" rx="20.561" ry="5.831" fill="none" stroke="url(#i)" stroke-width="3.367" stroke-miterlimit="10"/><linearGradient id="j" gradientUnits="userSpaceOnUse" x1="37.864" y1="64.11" x2="45.407" y2="56.568"><stop offset="0" stop-color="#77c3e2"/><stop offset=".089" stop-color="#7ac5d3"/><stop offset=".241" stop-color="#7ec7bf"/><stop offset=".416" stop-color="#81c9b1"/><stop offset=".63" stop-color="#83caa8"/><stop offset="1" stop-color="#83caa6"/></linearGradient><path fill="none" stroke="url(#j)" stroke-width="2.402" stroke-miterlimit="10" d="M41.635 53.998V66.68"/><linearGradient id="k" gradientUnits="userSpaceOnUse" x1="33.878" y1="70.473" x2="48.128" y2="59.348"><stop offset="0" stop-color="#77c3e2"/><stop offset="1" stop-color="#83caa6"/></linearGradient><path fill="url(#k)" d="M36.547 63.709l5.064 5.408 5.112-5.362z"/></svg>