<svg width="232" height="232" viewBox="0 0 232 232" xmlns="http://www.w3.org/2000/svg" xmlns:xlink="http://www.w3.org/1999/xlink"><title>537A2955-A09E-4EB0-A1B1-E161779CD6A0</title><defs><circle id="a" cx="116" cy="116" r="116"/></defs><g fill="none" fill-rule="evenodd"><mask id="b" fill="#fff"><use xlink:href="#a"/></mask><use fill="#EBEAF6" xlink:href="#a"/><g mask="url(#b)"><path d="M81 120v54s3.081 29.445 28 26c24.38-2.749 21-30 21-30v-33s-3.553-34.212 26-35c28.988-.761 26 33 26 33v166" stroke="#8E8AC8" stroke-width="21"/><path fill="#8E8AC8" d="M53 67h56v24H53z"/><path fill="#5B5FA8" d="M53 91h56l-12 29H65z"/><path fill="#C4C2E0" d="M60 33h42v34H60z"/><path fill="#5B5FA8" d="M50 67h62v-5H50z"/><path fill="#8E8AC8" d="M64 33h2v15h-2zM68 33h2v15h-2zM72 33h2v15h-2zM76 33h2v15h-2zM80 33h2v15h-2zM84 33h2v15h-2zM88 33h2v15h-2zM92 33h2v15h-2zM96 33h2v15h-2z"/></g></g></svg>