<?xml version="1.0" encoding="iso-8859-1"?>
<!-- Generator: Adobe Illustrator 21.0.2, SVG Export Plug-In . SVG Version: 6.00 Build 0)  -->
<svg xmlns="http://www.w3.org/2000/svg" xmlns:xlink="http://www.w3.org/1999/xlink" version="1.1" x="0px" y="0px" viewBox="0 0 40 40" style="enable-background:new 0 0 40 40;" xml:space="preserve">
<g id="Layer_1">
</g>
<g id="Layer_2">
	<g>
		<path style="fill:#98CCFD;" d="M20,38.5C9.799,38.5,1.5,30.201,1.5,20S9.799,1.5,20,1.5S38.5,9.799,38.5,20S30.201,38.5,20,38.5z"/>
		<path style="fill:#4788C7;" d="M20,2c9.925,0,18,8.075,18,18s-8.075,18-18,18S2,29.925,2,20S10.075,2,20,2 M20,1    C9.507,1,1,9.507,1,20s8.507,19,19,19s19-8.507,19-19S30.493,1,20,1L20,1z"/>
	</g>
	<path style="fill:#FFFFFF;" d="M20,16L20,16c-0.552,0-1-0.448-1-1v-5c0-0.552,0.448-1,1-1h0c0.552,0,1,0.448,1,1v5   C21,15.552,20.552,16,20,16z"/>
	<polygon style="fill:#FFFFFF;" points="15,11 20,6 25,11  "/>
	<path style="fill:#FFFFFF;" d="M20,24L20,24c0.552,0,1,0.448,1,1v5c0,0.552-0.448,1-1,1h0c-0.552,0-1-0.448-1-1v-5   C19,24.448,19.448,24,20,24z"/>
	<polygon style="fill:#FFFFFF;" points="25,29 20,34 15,29  "/>
	<path style="fill:#FFFFFF;" d="M35,20L35,20c0,0.552-0.448,1-1,1h-5c-0.552,0-1-0.448-1-1v0c0-0.552,0.448-1,1-1h5   C34.552,19,35,19.448,35,20z"/>
	<polygon style="fill:#FFFFFF;" points="30,25 25,20 30,15  "/>
	<path style="fill:#FFFFFF;" d="M5,20L5,20c0-0.552,0.448-1,1-1h5c0.552,0,1,0.448,1,1v0c0,0.552-0.448,1-1,1H6   C5.448,21,5,20.552,5,20z"/>
	<polygon style="fill:#FFFFFF;" points="10,15 15,20 10,25  "/>
</g>
</svg>
