<?xml version="1.0" encoding="iso-8859-1"?>
<!-- Generator: Adobe Illustrator 21.0.2, SVG Export Plug-In . SVG Version: 6.00 Build 0)  -->
<svg xmlns="http://www.w3.org/2000/svg" xmlns:xlink="http://www.w3.org/1999/xlink" version="1.1" x="0px" y="0px" viewBox="0 0 40 40" style="enable-background:new 0 0 40 40;" xml:space="preserve">
<g id="Layer_1">
</g>
<g id="Layer_2">
	<g>
		<rect x="8.5" y="1.5" style="fill:#DFF0FE;" width="23" height="37"/>
		<g>
			<path style="fill:#4788C7;" d="M31,2v36H9V2H31 M32,1H8v38h24V1L32,1z"/>
		</g>
	</g>
	<g>
		<rect x="12.5" y="5.5" style="fill:#98CCFD;" width="15" height="18"/>
		<path style="fill:#4788C7;" d="M27,6v17H13V6H27 M28,5H12v19h16V5L28,5z"/>
	</g>
	
		<rect x="19.5" y="3.5" transform="matrix(-1.836970e-16 1 -1 -1.836970e-16 31.5 -8.5)" style="fill:#4788C7;" width="1" height="16"/>
	
		<rect x="19.5" y="9.5" transform="matrix(-1.836970e-16 1 -1 -1.836970e-16 37.5 -2.5)" style="fill:#4788C7;" width="1" height="16"/>
	<path style="fill:#FFFFFF;" d="M22,14.5L22,14.5c0-0.276,0.224-0.5,0.5-0.5h2c0.276,0,0.5,0.224,0.5,0.5v0   c0,0.276-0.224,0.5-0.5,0.5h-2C22.224,15,22,14.776,22,14.5z"/>
	<path style="fill:#FFFFFF;" d="M22,20.5L22,20.5c0-0.276,0.224-0.5,0.5-0.5h2c0.276,0,0.5,0.224,0.5,0.5v0   c0,0.276-0.224,0.5-0.5,0.5h-2C22.224,21,22,20.776,22,20.5z"/>
	<path style="fill:#FFFFFF;" d="M22,8.5L22,8.5C22,8.224,22.224,8,22.5,8h2C24.776,8,25,8.224,25,8.5v0C25,8.776,24.776,9,24.5,9h-2   C22.224,9,22,8.776,22,8.5z"/>
	<g>
		<circle style="fill:#98CCFD;" cx="20" cy="30" r="2.5"/>
		<g>
			<path style="fill:#4788C7;" d="M20,28c1.103,0,2,0.897,2,2s-0.897,2-2,2s-2-0.897-2-2S18.897,28,20,28 M20,27     c-1.657,0-3,1.343-3,3s1.343,3,3,3s3-1.343,3-3S21.657,27,20,27L20,27z"/>
		</g>
	</g>
</g>
</svg>
