<svg xmlns="http://www.w3.org/2000/svg" viewBox="0 0 43.875 50.25"><linearGradient id="a" gradientUnits="userSpaceOnUse" x1="-.373" y1="34.229" x2="32.053" y2="1.803"><stop offset="0" stop-color="#77c5e3"/><stop offset="1" stop-color="#85cca8"/></linearGradient><path d="M29.447 34.936H2.234a1.18 1.18 0 0 1-1.176-1.176V2.272a1.18 1.18 0 0 1 1.176-1.176h27.213a1.18 1.18 0 0 1 1.176 1.176V33.76a1.18 1.18 0 0 1-1.176 1.176z" fill="#fff" stroke="url(#a)" stroke-width="2"/><linearGradient id="b" gradientUnits="userSpaceOnUse" x1="8.919" y1="28.92" x2="14.701" y2="23.137"><stop offset="0" stop-color="#77c5e3"/><stop offset="1" stop-color="#85cca8"/></linearGradient><path fill="none" stroke="url(#b)" d="M6.527 26.029h10.565"/><linearGradient id="c" gradientUnits="userSpaceOnUse" x1="10.595" y1="21.169" x2="19.729" y2="12.035"><stop offset="0" stop-color="#77c5e3"/><stop offset="1" stop-color="#85cca8"/></linearGradient><path fill="none" stroke="url(#c)" d="M6.527 16.602h17.269"/><linearGradient id="d" gradientUnits="userSpaceOnUse" x1="10.595" y1="25.882" x2="19.729" y2="16.748"><stop offset="0" stop-color="#77c5e3"/><stop offset="1" stop-color="#85cca8"/></linearGradient><path fill="none" stroke="url(#d)" d="M6.527 21.315h17.269"/><linearGradient id="e" gradientUnits="userSpaceOnUse" x1="9.81" y1="10.957" x2="17.374" y2="3.393"><stop offset="0" stop-color="#77c5e3"/><stop offset="1" stop-color="#85cca8"/></linearGradient><path fill="none" stroke="url(#e)" d="M6.527 7.175h14.129"/><linearGradient id="f" gradientUnits="userSpaceOnUse" x1="10.595" y1="16.456" x2="19.729" y2="7.321"><stop offset="0" stop-color="#77c5e3"/><stop offset="1" stop-color="#85cca8"/></linearGradient><path fill="none" stroke="url(#f)" d="M6.527 11.888h17.269"/><linearGradient id="g" gradientUnits="userSpaceOnUse" x1="3.918" y1="38.415" x2="36.343" y2="5.989"><stop offset="0" stop-color="#77c5e3"/><stop offset="1" stop-color="#85cca8"/></linearGradient><path d="M33.737 39.122H6.524a1.18 1.18 0 0 1-1.176-1.176V6.458a1.18 1.18 0 0 1 1.176-1.176h27.213a1.18 1.18 0 0 1 1.176 1.176v31.487a1.18 1.18 0 0 1-1.176 1.177z" fill="#fff" stroke="url(#g)" stroke-width="2"/><linearGradient id="h" gradientUnits="userSpaceOnUse" x1="13.209" y1="33.106" x2="18.992" y2="27.323"><stop offset="0" stop-color="#77c5e3"/><stop offset="1" stop-color="#85cca8"/></linearGradient><path fill="none" stroke="url(#h)" d="M10.818 30.215h10.565"/><linearGradient id="i" gradientUnits="userSpaceOnUse" x1="14.885" y1="25.355" x2="24.019" y2="16.221"><stop offset="0" stop-color="#77c5e3"/><stop offset="1" stop-color="#85cca8"/></linearGradient><path fill="none" stroke="url(#i)" d="M10.818 20.788h17.268"/><linearGradient id="j" gradientUnits="userSpaceOnUse" x1="14.885" y1="30.068" x2="24.019" y2="20.934"><stop offset="0" stop-color="#77c5e3"/><stop offset="1" stop-color="#85cca8"/></linearGradient><path fill="none" stroke="url(#j)" d="M10.818 25.501h17.268"/><linearGradient id="k" gradientUnits="userSpaceOnUse" x1="14.1" y1="15.143" x2="21.665" y2="7.579"><stop offset="0" stop-color="#77c5e3"/><stop offset="1" stop-color="#85cca8"/></linearGradient><path fill="none" stroke="url(#k)" d="M10.818 11.361h14.129"/><linearGradient id="l" gradientUnits="userSpaceOnUse" x1="14.885" y1="20.641" x2="24.019" y2="11.507"><stop offset="0" stop-color="#77c5e3"/><stop offset="1" stop-color="#85cca8"/></linearGradient><path fill="none" stroke="url(#l)" d="M10.818 16.074h17.268"/><g><linearGradient id="m" gradientUnits="userSpaceOnUse" x1="8.418" y1="42.81" x2="40.843" y2="10.384"><stop offset="0" stop-color="#77c5e3"/><stop offset="1" stop-color="#85cca8"/></linearGradient><path d="M38.237 43.517H11.024a1.18 1.18 0 0 1-1.176-1.176V10.853a1.18 1.18 0 0 1 1.176-1.176h27.213a1.18 1.18 0 0 1 1.176 1.176V42.34a1.18 1.18 0 0 1-1.176 1.177z" fill="#fff" stroke="url(#m)" stroke-width="2"/><linearGradient id="n" gradientUnits="userSpaceOnUse" x1="17.709" y1="37.501" x2="23.491" y2="31.718"><stop offset="0" stop-color="#77c5e3"/><stop offset="1" stop-color="#85cca8"/></linearGradient><path fill="none" stroke="url(#n)" d="M15.318 34.61h10.565"/><linearGradient id="o" gradientUnits="userSpaceOnUse" x1="19.385" y1="29.75" x2="28.519" y2="20.616"><stop offset="0" stop-color="#77c5e3"/><stop offset="1" stop-color="#85cca8"/></linearGradient><path fill="none" stroke="url(#o)" d="M15.318 25.183h17.268"/><linearGradient id="p" gradientUnits="userSpaceOnUse" x1="18.857" y1="33.935" x2="26.935" y2="25.857"><stop offset="0" stop-color="#77c5e3"/><stop offset="1" stop-color="#85cca8"/></linearGradient><path fill="none" stroke="url(#p)" d="M15.318 29.896h15.156"/><linearGradient id="q" gradientUnits="userSpaceOnUse" x1="18.6" y1="19.538" x2="26.164" y2="11.974"><stop offset="0" stop-color="#77c5e3"/><stop offset="1" stop-color="#85cca8"/></linearGradient><path fill="none" stroke="url(#q)" d="M15.318 15.756h14.129"/><linearGradient id="r" gradientUnits="userSpaceOnUse" x1="19.385" y1="25.037" x2="28.519" y2="15.902"><stop offset="0" stop-color="#77c5e3"/><stop offset="1" stop-color="#85cca8"/></linearGradient><path fill="none" stroke="url(#r)" d="M15.318 20.469h17.268"/></g><g><circle cx="34.709" cy="37.912" r="8.134" fill="#fff"/><linearGradient id="s" gradientUnits="userSpaceOnUse" x1="30.658" y1="44.193" x2="38.761" y2="44.193"><stop offset="0" stop-color="#77c5e3"/><stop offset="1" stop-color="#85cca8"/></linearGradient><path fill="url(#s)" d="M30.658 38.175v11.977l3.952-3.431 4.151 3.489V38.34z"/><linearGradient id="t" gradientUnits="userSpaceOnUse" x1="27.719" y1="37.912" x2="41.7" y2="37.912"><stop offset="0" stop-color="#77c5e3"/><stop offset="1" stop-color="#85cca8"/></linearGradient><circle cx="34.709" cy="37.912" r="6.491" fill="#fff" stroke="url(#t)" stroke-miterlimit="10"/><linearGradient id="u" gradientUnits="userSpaceOnUse" x1="30.058" y1="37.912" x2="39.361" y2="37.912"><stop offset="0" stop-color="#77c5e3"/><stop offset="1" stop-color="#85cca8"/></linearGradient><circle cx="34.709" cy="37.912" r="4.651" fill="url(#u)"/></g></svg>