<svg viewBox="0 0 84.38 59.7" xmlns="http://www.w3.org/2000/svg" xmlns:xlink="http://www.w3.org/1999/xlink"><linearGradient id="a" gradientUnits="userSpaceOnUse" x1="36.37" x2="57.36" y1="33.03" y2="33.03"><stop offset="0" stop-color="#8176b5"/><stop offset="1" stop-color="#ba77b1"/></linearGradient><linearGradient id="b" x1="0" x2="76.99" xlink:href="#a" y1="26.14" y2="26.14"/><linearGradient id="c" x1="5.48" x2="84.38" xlink:href="#a" y1="32.61" y2="32.61"/><path d="m56.47 31.78-17.94-10.35a1.34 1.34 0 0 0 -2.15 1.24v20.71a1.48 1.48 0 0 0 .62 1.35 1.11 1.11 0 0 0 .59.16 1.79 1.79 0 0 0 .9-.27l17.98-10.35a1.36 1.36 0 0 0 .82-1.72 1.38 1.38 0 0 0 -.82-.82z" fill="url(#a)"/><path d="m76 52.28h-75a1 1 0 0 1 -1-.91v-50.37a1 1 0 0 1 1-1h75a1 1 0 0 1 1 1v50.37a1 1 0 0 1 -1 .91zm-74.09-1.91h73.19v-48.46h-73.19z" fill="url(#b)" opacity=".5"/><path d="m81.19 59.7h-72.51a3.2 3.2 0 0 1 -3.2-3.18v-47.81a3.19 3.19 0 0 1 3.19-3.19h72.52a3.19 3.19 0 0 1 3.19 3.19v47.8a3.19 3.19 0 0 1 -3.19 3.19zm-71.91-3.83h71.26v-46.53h-71.26z" fill="url(#c)"/></svg>