<?xml version="1.0" encoding="iso-8859-1"?>
<!-- Generator: Adobe Illustrator 21.0.2, SVG Export Plug-In . SVG Version: 6.00 Build 0)  -->
<svg xmlns="http://www.w3.org/2000/svg" xmlns:xlink="http://www.w3.org/1999/xlink" version="1.1" x="0px" y="0px" viewBox="0 0 40 40" style="enable-background:new 0 0 40 40;" xml:space="preserve">
<g id="Layer_1">
</g>
<g id="Layer_2">
	<g>
		<rect x="1.5" y="1.5" style="fill:#98CCFD;" width="37" height="37"/>
		<path style="fill:#4788C7;" d="M38,2v36H2V2H38 M39,1H1v38h38V1L39,1z"/>
	</g>
	<rect x="26" y="6" transform="matrix(4.456530e-11 -1 1 4.456530e-11 17 38)" style="fill:#FFFFFF;" width="3" height="9"/>
	<polygon style="fill:#FFFFFF;" points="29,15 34,10.5 29,6  "/>
	<rect x="26" y="20" transform="matrix(4.456530e-11 -1 1 4.456530e-11 3 52)" style="fill:#FFFFFF;" width="3" height="9"/>
	<polygon style="fill:#FFFFFF;" points="29,29 34,24.5 29,20  "/>
	<rect x="11" y="11" transform="matrix(6.123234e-17 -1 1 6.123234e-17 -3 28)" style="fill:#FFFFFF;" width="3" height="9"/>
	<polygon style="fill:#FFFFFF;" points="11,20 6,15.5 11,11  "/>
	<rect x="11" y="25" transform="matrix(6.123234e-17 -1 1 6.123234e-17 -17 42)" style="fill:#FFFFFF;" width="3" height="9"/>
	<polygon style="fill:#FFFFFF;" points="11,34 6,29.5 11,25  "/>
</g>
</svg>
