<?xml version="1.0" encoding="utf-8"?>
<!-- Generator: Adobe Illustrator 20.0.0, SVG Export Plug-In . SVG Version: 6.00 Build 0)  -->
<svg version="1.1" id="Layer_1" xmlns="http://www.w3.org/2000/svg" xmlns:xlink="http://www.w3.org/1999/xlink" x="0px" y="0px"
	 viewBox="0 0 80 80" style="enable-background:new 0 0 80 80;" xml:space="preserve">
<style type="text/css">
	.st0{clip-path:url(#SVGID_2_);fill:url(#SVGID_3_);}
	.st1{clip-path:url(#SVGID_2_);fill:url(#SVGID_4_);}
	.st2{clip-path:url(#SVGID_2_);fill:url(#SVGID_5_);}
	.st3{clip-path:url(#SVGID_2_);fill:url(#SVGID_6_);}
	.st4{clip-path:url(#SVGID_2_);fill:url(#SVGID_7_);}
	.st5{clip-path:url(#SVGID_2_);fill:url(#SVGID_8_);}
	.st6{clip-path:url(#SVGID_2_);fill:url(#SVGID_9_);}
	.st7{clip-path:url(#SVGID_2_);fill:url(#SVGID_10_);}
	.st8{clip-path:url(#SVGID_2_);fill:url(#SVGID_11_);}
	.st9{clip-path:url(#SVGID_2_);fill:url(#SVGID_12_);}
	.st10{clip-path:url(#SVGID_2_);fill:url(#SVGID_13_);}
	.st11{clip-path:url(#SVGID_2_);fill:url(#SVGID_14_);}
	.st12{clip-path:url(#SVGID_2_);fill:url(#SVGID_15_);}
	.st13{clip-path:url(#SVGID_2_);fill:url(#SVGID_16_);}
	.st14{clip-path:url(#SVGID_2_);fill:url(#SVGID_17_);}
	.st15{fill:#FFFFFF;}
</style>
<g>
	<g>
		<defs>
			<path id="SVGID_1_" d="M78.6,54.5H3.2c-0.7,0-1.2-0.5-1.2-1.2V1.4c0-0.7,0.5-1.2,1.2-1.2h75.4c0.7,0,1.2,0.5,1.2,1.2v51.9
				C79.8,54,79.2,54.5,78.6,54.5z"/>
		</defs>
		<clipPath id="SVGID_2_">
			<use xlink:href="#SVGID_1_"  style="overflow:visible;"/>
		</clipPath>
		<linearGradient id="SVGID_3_" gradientUnits="userSpaceOnUse" x1="-25.6376" y1="43.5829" x2="84.6174" y2="-66.672">
			<stop  offset="0" style="stop-color:#8076B5"/>
			<stop  offset="1" style="stop-color:#B977B0"/>
		</linearGradient>
		<rect x="2" y="0.2" class="st0" width="23.2" height="8.3"/>
		<linearGradient id="SVGID_4_" gradientUnits="userSpaceOnUse" x1="-11.8121" y1="57.075" x2="98.4429" y2="-53.18">
			<stop  offset="0" style="stop-color:#8076B5"/>
			<stop  offset="1" style="stop-color:#B977B0"/>
		</linearGradient>
		<rect x="29.3" y="0.2" class="st1" width="23.2" height="8.3"/>
		<linearGradient id="SVGID_5_" gradientUnits="userSpaceOnUse" x1="2.0127" y1="70.5662" x2="112.2676" y2="-39.6886">
			<stop  offset="0" style="stop-color:#8076B5"/>
			<stop  offset="1" style="stop-color:#B977B0"/>
		</linearGradient>
		<rect x="56.6" y="0.2" class="st2" width="23.2" height="8.3"/>
		<linearGradient id="SVGID_6_" gradientUnits="userSpaceOnUse" x1="-26.5425" y1="42.4506" x2="83.7129" y2="-67.8048">
			<stop  offset="0" style="stop-color:#8076B5"/>
			<stop  offset="1" style="stop-color:#B977B0"/>
		</linearGradient>
		<rect x="-11.6" y="11.7" class="st3" width="23.2" height="8.3"/>
		<linearGradient id="SVGID_7_" gradientUnits="userSpaceOnUse" x1="-12.7171" y1="55.9427" x2="97.5383" y2="-54.3127">
			<stop  offset="0" style="stop-color:#8076B5"/>
			<stop  offset="1" style="stop-color:#B977B0"/>
		</linearGradient>
		<rect x="15.8" y="11.7" class="st4" width="23.2" height="8.3"/>
		<linearGradient id="SVGID_8_" gradientUnits="userSpaceOnUse" x1="1.1077" y1="69.434" x2="111.3629" y2="-40.8213">
			<stop  offset="0" style="stop-color:#8076B5"/>
			<stop  offset="1" style="stop-color:#B977B0"/>
		</linearGradient>
		<rect x="43.1" y="11.7" class="st5" width="23.2" height="8.3"/>
		<linearGradient id="SVGID_9_" gradientUnits="userSpaceOnUse" x1="15.0894" y1="83.0778" x2="125.344" y2="-27.1769">
			<stop  offset="0" style="stop-color:#8076B5"/>
			<stop  offset="1" style="stop-color:#B977B0"/>
		</linearGradient>
		<rect x="70.7" y="11.7" class="st6" width="23.2" height="8.3"/>
		<linearGradient id="SVGID_10_" gradientUnits="userSpaceOnUse" x1="-13.7487" y1="54.6862" x2="96.5063" y2="-55.5688">
			<stop  offset="0" style="stop-color:#8076B5"/>
			<stop  offset="1" style="stop-color:#B977B0"/>
		</linearGradient>
		<rect x="2" y="23.2" class="st7" width="23.2" height="8.3"/>
		<linearGradient id="SVGID_11_" gradientUnits="userSpaceOnUse" x1="7.679664e-02" y1="68.1782" x2="110.3318" y2="-42.0767">
			<stop  offset="0" style="stop-color:#8076B5"/>
			<stop  offset="1" style="stop-color:#B977B0"/>
		</linearGradient>
		<rect x="29.3" y="23.2" class="st8" width="23.2" height="8.3"/>
		<linearGradient id="SVGID_12_" gradientUnits="userSpaceOnUse" x1="13.9016" y1="81.6695" x2="124.1564" y2="-28.5854">
			<stop  offset="0" style="stop-color:#8076B5"/>
			<stop  offset="1" style="stop-color:#B977B0"/>
		</linearGradient>
		<rect x="56.6" y="23.2" class="st9" width="23.2" height="8.3"/>
		<linearGradient id="SVGID_13_" gradientUnits="userSpaceOnUse" x1="-1.8598" y1="65.7895" x2="108.3952" y2="-44.4655">
			<stop  offset="0" style="stop-color:#8076B5"/>
			<stop  offset="1" style="stop-color:#B977B0"/>
		</linearGradient>
		<rect x="2" y="46.2" class="st10" width="23.2" height="8.3"/>
		<linearGradient id="SVGID_14_" gradientUnits="userSpaceOnUse" x1="8.7852" y1="75.7195" x2="118.0408" y2="-33.5361">
			<stop  offset="0" style="stop-color:#8076B5"/>
			<stop  offset="1" style="stop-color:#B977B0"/>
		</linearGradient>
		<rect x="29.3" y="46.2" class="st11" width="9.7" height="8.3"/>
		<linearGradient id="SVGID_15_" gradientUnits="userSpaceOnUse" x1="-14.6536" y1="53.5538" x2="95.6018" y2="-56.7016">
			<stop  offset="0" style="stop-color:#8076B5"/>
			<stop  offset="1" style="stop-color:#B977B0"/>
		</linearGradient>
		<rect x="-11.6" y="34.7" class="st12" width="23.2" height="8.3"/>
		<linearGradient id="SVGID_16_" gradientUnits="userSpaceOnUse" x1="-0.8281" y1="67.0459" x2="109.4273" y2="-43.2095">
			<stop  offset="0" style="stop-color:#8076B5"/>
			<stop  offset="1" style="stop-color:#B977B0"/>
		</linearGradient>
		<rect x="15.8" y="34.7" class="st13" width="23.2" height="8.3"/>
		<linearGradient id="SVGID_17_" gradientUnits="userSpaceOnUse" x1="19.8241" y1="86.7237" x2="129.616" y2="-23.0681">
			<stop  offset="0" style="stop-color:#8076B5"/>
			<stop  offset="1" style="stop-color:#B977B0"/>
		</linearGradient>
		<rect x="43.8" y="34.7" class="st14" width="36.2" height="19.8"/>
	</g>
	<g>
		<path class="st15" d="M58.8,48.8h-0.9l-1.6-5.2c-0.1-0.2-0.2-0.5-0.2-0.9C56,42.4,56,42.2,56,42.1c-0.1,0.5-0.2,1-0.4,1.5
			l-1.5,5.1h-0.9L51.1,41h1l1.2,4.8c0.2,0.7,0.3,1.3,0.4,1.8c0.1-0.6,0.2-1.3,0.4-1.9l1.4-4.7h1l1.5,4.7c0.2,0.5,0.3,1.2,0.4,1.9
			c0.1-0.5,0.2-1.1,0.4-1.8l1.2-4.8h1L58.8,48.8z"/>
		<path class="st15" d="M67,48.8l-1-2.5h-3.1l-1,2.5H61l3.1-7.8h0.8l3,7.8H67z M65.7,45.5l-0.9-2.4c-0.1-0.3-0.2-0.7-0.4-1.1
			c-0.1,0.3-0.2,0.7-0.3,1.1l-0.9,2.4H65.7z"/>
		<path class="st15" d="M69.8,48.8h-0.9V41h4.3v0.8h-3.4v2.8h3.2v0.8h-3.2V48.8z"/>
	</g>
</g>
</svg>
