<svg enable-background="new 0 0 80 80" viewBox="0 0 80 80" xmlns="http://www.w3.org/2000/svg" xmlns:xlink="http://www.w3.org/1999/xlink"><linearGradient id="a" gradientUnits="userSpaceOnUse" x1="15.0188" x2="59.7149" y1="62.7062" y2="18.0102"><stop offset="0" stop-color="#8176b5"/><stop offset="1" stop-color="#ba77b1"/></linearGradient><path d="m58.4 56.4h2.5v3.6c0 2-1.6 3.6-3.6 3.6h-39.8c-2 0-3.6-1.6-3.6-3.6v-39.3c0-2 1.6-3.6 3.6-3.6h3.3v2.5h-3.3c-.6 0-1.1.5-1.1 1.1v39.3c0 .6.5 1.1 1.1 1.1h39.8c.6 0 1.1-.5 1.1-1.1zm0-35.7v14.4h2.5v-14.4c0-2-1.6-3.6-3.6-3.6h-16.3v2.5h16.3c.6 0 1.1.5 1.1 1.1zm-21.9-.3c1.1 0 2-.9 2-2s-.9-2-2-2-2 .9-2 2 .9 2 2 2zm-5.6 0c1.1 0 2-.9 2-2s-.9-2-2-2-2 .9-2 2 .9 2 2 2zm-5.6 0c1.1 0 2-.9 2-2s-.9-2-2-2-2 .9-2 2 .9 2 2 2zm28.6 30.9c0 .7.2 1.2.6 1.5s1 .5 1.7.5v1.4c-1.3 0-2.3-.3-3-.9s-1.1-1.4-1.1-2.4v-3.1c0-.7-.2-1.2-.6-1.5s-1-.5-1.9-.5v-1.3c.9 0 1.5-.2 1.9-.5s.6-.8.6-1.4v-3.1c0-1 .4-1.9 1.1-2.4.7-.6 1.7-.9 2.9-.9v1.4c-1.6 0-2.3.7-2.3 2v3c0 1.5-.8 2.3-2.3 2.6v.1c1.5.3 2.3 1.1 2.3 2.6v2.9zm13.7-5.7c-1.5-.3-2.3-1.1-2.3-2.6v-3c0-1.3-.8-2-2.3-2v-1.4c1.2 0 2.2.3 2.9.9s1.1 1.4 1.1 2.5v3.1c0 .7.2 1.1.6 1.4s1 .5 1.9.5v1.4c-.8 0-1.4.2-1.9.5-.4.3-.6.8-.6 1.5v3.1c0 1-.3 1.8-1 2.4s-1.7.9-3 .9v-1.4c.7 0 1.3-.2 1.7-.5s.6-.8.6-1.5v-3c0-.8.2-1.4.6-1.8s.9-.7 1.7-.8z" fill="url(#a)"/></svg>